HIERARCHY
ROOT Hips
{
	OFFSET 0.00000 0.00000 0.00000
	CHANNELS 6 Xposition Yposition Zposition Zrotation Yrotation Xrotation 
	JOINT LHipJoint
	{
		OFFSET 0 0 0
		CHANNELS 3 Zrotation Yrotation Xrotation
		JOINT LeftUpLeg
		{
			OFFSET 1.62067 -1.77917 0.70989
			CHANNELS 3 Zrotation Yrotation Xrotation
			JOINT LeftLeg
			{
				OFFSET 2.34532 -6.44371 0.00000
				CHANNELS 3 Zrotation Yrotation Xrotation
				JOINT LeftFoot
				{
					OFFSET 2.74224 -7.53425 0.00000
					CHANNELS 3 Zrotation Yrotation Xrotation
					JOINT LeftToeBase
					{
						OFFSET 0.17032 -0.46794 2.08086
						CHANNELS 3 Zrotation Yrotation Xrotation
						End Site
						{
							OFFSET 0.00000 -0.00000 1.07476
						}
					}
				}
			}
		}
	}
	JOINT RHipJoint
	{
		OFFSET 0 0 0
		CHANNELS 3 Zrotation Yrotation Xrotation
		JOINT RightUpLeg
		{
			OFFSET -1.55811 -1.77917 0.70989
			CHANNELS 3 Zrotation Yrotation Xrotation
			JOINT RightLeg
			{
				OFFSET -2.33243 -6.40830 0.00000
				CHANNELS 3 Zrotation Yrotation Xrotation
				JOINT RightFoot
				{
					OFFSET -2.78798 -7.65993 0.00000
					CHANNELS 3 Zrotation Yrotation Xrotation
					JOINT RightToeBase
					{
						OFFSET -0.22707 -0.62388 2.04059
						CHANNELS 3 Zrotation Yrotation Xrotation
						End Site
						{
							OFFSET -0.00000 -0.00000 1.07030
						}
					}
				}
			}
		}
	}
	JOINT LowerBack
	{
		OFFSET 0 0 0
		CHANNELS 3 Zrotation Yrotation Xrotation
		JOINT Spine
		{
			OFFSET 0.02203 1.91565 0.07161
			CHANNELS 3 Zrotation Yrotation Xrotation
			JOINT Spine1
			{
				OFFSET 0.01740 1.90525 0.11636
				CHANNELS 3 Zrotation Yrotation Xrotation
				JOINT Neck
				{
					OFFSET 0 0 0
					CHANNELS 3 Zrotation Yrotation Xrotation
					JOINT Neck1
					{
						OFFSET -0.10841 1.83566 0.05067
						CHANNELS 3 Zrotation Yrotation Xrotation
						JOINT Head
						{
							OFFSET 0.06601 1.74760 -0.50505
							CHANNELS 3 Zrotation Yrotation Xrotation
							End Site
							{
								OFFSET 0.03102 1.85215 -0.17697
							}
						}
					}
				}
				JOINT LeftShoulder
				{
					OFFSET 0 0 0
					CHANNELS 3 Zrotation Yrotation Xrotation
					JOINT LeftArm
					{
						OFFSET 2.87059 1.35470 0.16111
						CHANNELS 3 Zrotation Yrotation Xrotation
						JOINT LeftForeArm
						{
							OFFSET 5.43592 -0.00000 0.00000
							CHANNELS 3 Zrotation Yrotation Xrotation
							JOINT LeftHand
							{
								OFFSET 3.25460 -0.00000 0.00000
								CHANNELS 3 Zrotation Yrotation Xrotation
								JOINT LeftFingerBase
								{
									OFFSET 0 0 0
									CHANNELS 3 Zrotation Yrotation Xrotation
									JOINT LeftHandIndex1
									{
										OFFSET 0.49824 -0.00000 0.00000
										CHANNELS 3 Zrotation Yrotation Xrotation
										End Site
										{
											OFFSET 0.40170 -0.00000 0.00000
										}
									}
								}
								JOINT LThumb
								{
									OFFSET 0 0 0
									CHANNELS 3 Zrotation Yrotation Xrotation
									End Site
									{
										OFFSET 0.40783 -0.00000 0.40783
									}
								}
							}
						}
					}
				}
				JOINT RightShoulder
				{
					OFFSET 0 0 0
					CHANNELS 3 Zrotation Yrotation Xrotation
					JOINT RightArm
					{
						OFFSET -2.86643 1.23488 0.45957
						CHANNELS 3 Zrotation Yrotation Xrotation
						JOINT RightForeArm
						{
							OFFSET -5.33830 -0.00000 0.00000
							CHANNELS 3 Zrotation Yrotation Xrotation
							JOINT RightHand
							{
								OFFSET -3.23148 -0.00000 0.00000
								CHANNELS 3 Zrotation Yrotation Xrotation
								JOINT RightFingerBase
								{
									OFFSET 0 0 0
									CHANNELS 3 Zrotation Yrotation Xrotation
									JOINT RightHandIndex1
									{
										OFFSET -0.46364 -0.00000 0.00000
										CHANNELS 3 Zrotation Yrotation Xrotation
										End Site
										{
											OFFSET -0.37380 -0.00000 0.00000
										}
									}
								}
								JOINT RThumb
								{
									OFFSET 0 0 0
									CHANNELS 3 Zrotation Yrotation Xrotation
									End Site
									{
										OFFSET -0.37951 -0.00000 0.37951
									}
								}
							}
						}
					}
				}
			}
		}
	}
}
MOTION
Frames: 13
Frame Time: 0.0555556
0.00 0.00 0.00 0 0 0 0 0 0 -21 0 0 0 0 0 0 0 0 0 0 0 0 0 0 21 0 0 0 0 0 0 0 0 0 0 0 0 0 0 0 0 0 0 0 0 0 0 -16 0 0 21 0 0 11 0 0 0 -8 0 0 0 0 0 0 0 0 0 0 0 0 0 0 0 0 0 0 0 0 8 0 0 0 0 0 0 0 0 0 0 0 0 0 0 0 0 0
0.00 0.00 0.00 -180.3830 -11.5049 203.8040 0.0000 0.0000 0.0000 -15.2289 -16.9372 -27.9394 4.2748 12.5174 37.5879 2.0782 16.2662 -37.0166 0.0289 -1.0966 -3.0147 0.0000 0.0000 0.0000 3.3100 13.8234 -57.4422 -4.9493 -13.3265 40.6034 0.0606 -10.4515 -13.8938 -1.4573 7.6300 -21.5957 5.9349 6.1514 0.0315 3.1956 8.0639 -3.0954 -0.1538 3.7587 -2.8594 -16.4859 -11.0013 -7.7877 12.1274 -18.1447 24.4992 4.4917 -9.1065 11.9395 -0.0000 0.0000 0.0000 -9.8765 23.1182 -28.1711 19.4598 -29.9860 -5.2587 -0.0000 0.0000 -21.5068 53.6113 -34.6375 -37.6413 -7.1250 0.0000 -0.0000 10.6899 -18.6445 -13.7381 -0.0000 0.0000 0.0000 37.2368 33.3084 4.1377 -15.4010 24.7018 -3.3918 0.0000 0.0000 23.0406 -47.6804 -43.0739 36.8709 7.1250 -0.0000 -0.0000 -36.3059 -82.9293 31.9066
0.00 0.00 0.00 -180.5890 -2.9278 222.8800 0.0000 0.0000 0.0000 -7.8126 -24.8810 -38.7185 3.8564 11.9669 35.6149 3.9594 23.0635 -50.1875 0.0147 0.7816 2.1481 0.0000 0.0000 0.0000 6.0217 18.2488 -82.0950 -7.3965 -15.6569 50.3585 -0.0625 -10.4116 -15.7642 -0.2403 -3.1547 8.7097 8.6576 4.2870 9.6645 7.6450 6.1248 0.0544 2.4147 2.4646 -5.2723 -14.2795 -10.6164 -12.8847 11.5524 -14.3083 15.0765 4.3758 -6.6723 8.6916 -0.0000 0.0000 0.0000 25.5340 -2.7446 -13.6765 16.8035 -26.5980 -3.9990 -0.0000 0.0000 -9.7670 53.8611 -34.0244 -37.4606 -7.1250 0.0000 -0.0000 11.0364 -18.1189 -14.1338 -0.0000 0.0000 0.0000 34.8493 47.2234 3.5476 -12.6454 20.7655 -2.3261 0.0000 0.0000 23.1072 -48.6409 -47.4238 39.9112 7.1250 -0.0000 -0.0000 -65.1156 -87.0244 62.3840
0.00 0.00 0.00 -185.8870 1.0529 240.6180 0.0000 0.0000 0.0000 -7.0210 -25.1751 -49.3167 4.0307 12.2012 36.4474 2.8864 19.6240 -43.4758 0.1540 -2.5284 -6.9683 0.0000 0.0000 0.0000 -4.3786 19.5288 -100.6438 -11.1424 -18.0041 63.2431 -1.1974 -9.5626 -26.1666 -0.0444 -1.3593 3.7379 13.0290 1.9841 29.1303 11.7778 5.7157 3.5181 3.8754 1.3351 -11.2729 -12.1915 -10.0266 -24.4132 11.5360 -10.5307 2.3378 4.3718 -4.2728 5.7876 0.0000 0.0000 0.0000 49.4219 -23.9447 -32.0294 16.6508 -26.3951 -3.9308 -0.0000 -0.0000 6.1977 60.1195 -35.1506 -45.0575 -7.1250 0.0000 -0.0000 13.7284 -23.4875 -18.4466 0.0000 0.0000 0.0000 0.6293 60.2384 -21.8946 -15.5794 24.9471 -3.4667 0.0000 0.0000 18.9120 -59.5835 -54.1865 54.0968 7.1250 -0.0000 -0.0000 -165.3507 79.8529 -168.1264
0.00 0.00 0.00 -191.9860 3.6173 247.3500 0.0000 0.0000 0.0000 -12.3166 -27.0274 -43.9916 3.2758 11.1286 32.7149 0.6086 15.9782 -27.8081 0.2535 -3.2396 -8.9464 0.0000 0.0000 0.0000 -11.0339 15.6076 -104.8156 -12.1978 -18.4730 66.6143 -1.8150 -10.0874 -30.7805 -0.0004 -0.1242 0.3412 16.1175 0.6690 33.5745 12.5139 5.5747 4.3458 3.2195 1.0188 -11.8652 -10.9305 -10.4846 -31.0409 11.0875 -9.8898 -0.8393 4.0838 -3.5168 5.4743 -0.0000 -0.0000 0.0000 60.5170 -31.1649 -53.3958 15.1592 -24.3674 -3.2913 -0.0000 -0.0000 16.9142 74.3776 -41.2141 -67.0036 -7.1250 0.0000 -0.0000 17.8472 -40.7997 -25.6795 -0.0000 -0.0000 0.0000 -22.5902 58.7086 -47.8794 -17.4123 27.3981 -4.2753 0.0000 0.0000 18.6954 -65.0071 -55.6901 60.5616 7.1250 -0.0000 -0.0000 -168.2495 75.9279 -171.4344
0.00 0.00 0.00 -198.8350 10.3752 257.2330 0.0000 0.0000 0.0000 -27.0481 -14.4335 -24.6099 2.1221 9.1158 26.1583 0.3532 4.4824 -13.7801 2.7044 -10.2005 -29.6284 0.0000 0.0000 0.0000 -22.9450 10.3585 -107.3856 -12.1705 -18.4618 66.5281 -2.6184 -8.5293 -34.4888 -0.0122 0.7128 -1.9588 21.3441 -1.1624 33.7980 13.6734 5.5720 3.0758 2.2599 0.7523 -12.7548 -11.3188 -9.3197 -34.1052 8.9836 -7.2404 -2.1234 3.8490 -2.2066 4.9974 -0.0000 -0.0000 0.0000 66.7561 -30.2601 -53.6495 16.9509 -26.7929 -4.0652 -0.0000 -0.0000 11.5296 80.6740 -45.1588 -76.9600 -7.1250 0.0000 -0.0000 18.2114 -48.8422 -26.0452 -0.0000 -0.0000 0.0000 -44.8571 58.7700 -69.6168 -18.7603 29.1197 -4.9136 0.0000 0.0000 14.4784 -77.3684 -57.4243 75.1073 7.1250 -0.0000 -0.0000 -170.6711 67.8743 -174.8542
0.00 0.00 0.00 -206.8140 17.7801 272.6650 0.0000 0.0000 0.0000 -25.1482 -6.7903 -9.5265 4.6733 13.0062 39.3917 -0.0169 2.8753 -2.8781 2.1534 -9.1786 -26.3556 0.0000 0.0000 0.0000 -32.9548 0.9586 -104.6267 -8.6412 -16.5712 54.8407 -1.3717 -13.2644 -30.4286 -0.3623 3.8668 -10.7021 25.0072 -0.5324 26.9187 16.9847 7.3108 -1.9585 3.7917 1.1217 -15.8084 -14.0831 -6.1086 -27.4855 7.5921 -2.9898 -5.5726 4.3880 -0.3876 2.7159 -0.0000 -0.0000 0.0000 64.6892 -27.5149 -58.5955 16.3185 -25.9505 -3.7842 -0.0000 -0.0000 7.3759 67.2608 -38.8800 -56.2687 -7.1250 0.0000 -0.0000 15.5822 -32.7348 -21.9880 -0.0000 -0.0000 0.0000 -51.7864 61.7022 -65.9149 -27.0320 38.2097 -9.5189 0.0000 0.0000 22.8742 -118.4037 43.2377 -128.2887 7.1250 -0.0000 -0.0000 -169.1090 33.8206 176.9673
0.00 0.00 0.00 -211.8640 25.4207 282.3620 0.0000 0.0000 0.0000 -20.0937 -3.1535 -8.9031 9.6639 17.2165 58.3589 -0.0076 1.5458 -0.4641 2.1175 -9.1067 -26.1297 0.0000 0.0000 0.0000 -43.6278 -4.7806 -93.4428 -4.0655 -12.2470 36.6116 0.2656 -21.1035 -27.8283 -0.7119 5.3922 -15.0307 26.1579 0.8460 21.0810 17.0990 8.3051 -4.7901 3.2905 1.4524 -16.0946 -14.1237 -4.3291 -20.5945 5.7242 -1.9080 -8.2392 3.9146 -0.0750 0.8476 -0.0000 0.0000 0.0000 59.4521 -25.0425 -61.4154 15.5310 -24.8807 -3.4463 -0.0000 -0.0000 7.5784 61.5403 -37.2679 -48.1671 -7.1250 0.0000 -0.0000 13.5416 -26.7187 -18.5302 -0.0000 0.0000 0.0000 -54.9446 56.8243 -57.4710 -30.1830 41.0497 -11.5296 0.0000 0.0000 19.7064 -109.5950 53.8037 -113.8034 7.1250 -0.0000 -0.0000 -172.8401 46.3358 -179.7628
0.00 0.00 0.00 -213.7450 34.3003 289.5240 0.0000 0.0000 0.0000 -18.3705 -1.9940 -10.5779 14.3609 19.2199 73.3036 -0.0166 2.3099 -0.4646 2.4703 -9.7837 -28.2792 0.0000 0.0000 0.0000 -54.1569 -9.9160 -79.7824 -0.8348 -5.8286 16.2881 3.4137 -31.4622 -20.9079 -0.3330 3.7088 -10.2589 23.8096 3.2279 14.9619 16.5366 8.6215 -4.9098 3.7648 2.1077 -12.9537 -15.8161 -4.3094 -21.4302 5.3587 -1.3373 -8.6076 4.1035 0.2885 0.7785 -0.0000 -0.0000 0.0000 52.5586 -22.1194 -56.3087 15.1515 -24.3567 -3.2882 -0.0000 -0.0000 6.4086 70.1656 -38.4243 -59.8696 -7.1250 0.0000 -0.0000 17.2678 -34.8105 -24.6167 -0.0000 -0.0000 0.0000 -62.8074 49.9146 -56.4899 -29.4014 40.3747 -11.0198 0.0000 0.0000 16.7811 -109.0337 52.4188 -113.5244 7.1250 -0.0000 -0.0000 -171.4912 46.0842 -179.7707
0.00 0.00 0.00 -215.2030 46.6444 298.7890 0.0000 0.0000 0.0000 -9.1311 -0.3124 -13.2931 20.6852 19.9887 92.0039 -0.0625 5.8099 -6.1198 1.6500 -8.0955 -23.0045 0.0000 0.0000 0.0000 -58.8846 -19.7279 -69.4990 0.0000 -0.0000 0.0000 6.0686 -39.6538 -26.2856 -0.9069 -6.0685 16.9832 19.8169 6.1449 8.1402 15.2489 9.4550 -4.4489 4.8918 3.1849 -9.0822 -19.6194 -4.8279 -24.8341 5.4321 -0.2157 -8.9099 4.7956 1.1051 0.9667 0.0000 -0.0000 0.0000 45.3838 -23.6496 -64.7503 16.0148 -25.5406 -3.6523 -0.0000 0.0000 -1.6904 68.7258 -36.6125 -56.8611 -7.1250 0.0000 -0.0000 17.4218 -31.8971 -24.6524 0.0000 -0.0000 0.0000 -73.2100 40.5901 -57.9031 -24.0624 35.2301 -7.7425 0.0000 0.0000 16.2480 -107.5348 52.6194 -111.6844 7.1250 -0.0000 -0.0000 -171.1456 47.2035 -179.5149
0.00 0.00 0.00 -217.7080 50.1107 300.2960 0.0000 0.0000 0.0000 -0.0043 -0.7816 -14.0534 21.9033 19.9129 95.5725 0.0338 6.9810 -10.7180 0.0422 -1.3259 -3.6460 0.0000 0.0000 0.0000 -61.4357 -18.5329 -72.0401 -0.6331 -5.0911 14.1685 8.0330 -44.3736 -31.9195 -0.6341 -5.0949 14.1794 19.8451 6.7972 6.2740 14.8382 9.7386 -4.4130 4.5206 3.4103 -7.8144 -19.7537 -5.7748 -26.1249 7.3747 -1.1682 -9.5975 5.3929 0.7600 1.0653 -0.0000 0.0000 0.0000 43.8654 -23.6255 -64.3923 16.1995 -25.7903 -3.7323 -0.0000 0.0000 -5.1207 69.3374 -34.3008 -56.2093 -7.1250 0.0000 -0.0000 18.7955 -30.2310 -26.5714 -0.0000 0.0000 0.0000 -74.9663 37.3931 -59.2230 -22.0602 33.0450 -6.6186 0.0000 0.0000 18.7329 -106.4771 54.8547 -109.8862 7.1250 -0.0000 -0.0000 -172.8022 48.8059 -179.3211
0.00 0.00 0.00 -221.1870 52.7116 299.7600 0.0000 0.0000 0.0000 8.2815 -2.3252 -15.1932 21.3498 19.9563 93.9493 0.2695 6.9168 -14.7023 0.0079 0.5740 1.5774 0.0000 0.0000 0.0000 -49.3313 -20.6234 -87.4099 -4.7032 -13.0415 39.5240 5.2706 -36.7571 -15.5870 -0.4709 -4.4014 12.2087 19.8037 7.2631 5.4958 15.1232 10.1249 -4.5954 4.9195 3.6320 -7.6136 -21.2913 -6.7828 -28.0305 7.9932 -1.5531 -9.2066 5.8000 0.6749 1.4610 -0.0000 -0.0000 0.0000 39.8749 -23.4269 -60.2794 18.8945 -29.2874 -4.9792 -0.0000 0.0000 -9.1648 78.4001 -36.9156 -71.1321 -7.1250 0.0000 -0.0000 22.6941 -41.6011 -33.0541 -0.0000 -0.0000 0.0000 -76.3086 35.7520 -60.3642 -21.1770 32.0344 -6.1436 0.0000 0.0000 20.7535 -107.4597 53.1296 -111.4627 7.1250 -0.0000 -0.0000 -171.5637 47.4662 -179.4831
0.00 0.00 0.00 -223.7520 57.4221 299.7410 0.0000 0.0000 0.0000 13.7814 -3.0278 -18.4768 18.5446 19.9491 85.7412 0.6141 4.1380 -16.8857 0.0004 0.1284 0.3529 0.0000 0.0000 0.0000 -38.4338 -18.8246 -94.1977 -10.3832 -17.6198 60.7616 3.4448 -30.7945 -14.8484 -0.8853 -5.9978 16.7780 19.0369 7.9754 5.1687 15.3930 10.9539 -4.9669 5.5858 4.0646 -8.0096 -26.5045 -8.7877 -29.3373 9.2579 -2.0646 -8.2864 6.9480 0.6192 1.9331 0.0000 0.0000 0.0000 34.1624 -25.2452 -56.9850 20.7345 -31.5171 -5.9105 -0.0000 0.0000 -10.7886 93.8825 39.2837 96.1180 -7.1250 0.0000 -0.0000 33.1221 -59.4578 -46.1332 0.0000 0.0000 0.0000 -78.0023 35.0019 -60.2744 -21.0479 31.8842 -6.0752 0.0000 0.0000 24.8762 -107.9076 49.8036 -112.9306 7.1250 -0.0000 -0.0000 -168.9241 45.7264 -179.7990
